<?xml version="1.0" standalone="no"?>
<!DOCTYPE svg PUBLIC "-//W3C//DTD SVG 20010904//EN"
 "http://www.w3.org/TR/2001/REC-SVG-20010904/DTD/svg10.dtd">
<svg version="1.0" xmlns="http://www.w3.org/2000/svg"
 width="242.000000pt" height="242.000000pt" viewBox="0 0 242.000000 242.000000"
 preserveAspectRatio="xMidYMid meet">

<g transform="translate(0.000000,242.000000) scale(0.100000,-0.100000)"
fill="#000000" stroke="none">
<path d="M0 1210 l0 -1210 1210 0 1210 0 0 1210 0 1210 -1210 0 -1210 0 0
-1210z m1176 772 c-10 -20 -28 -32 -58 -41 -99 -29 -190 -111 -239 -215 -99
-211 -15 -438 199 -539 63 -30 73 -32 182 -32 109 0 119 2 183 32 120 57 219
188 234 310 22 188 -115 398 -289 444 -26 7 -49 20 -52 28 -3 9 -9 22 -12 29
-9 20 62 4 133 -29 131 -62 227 -189 259 -341 37 -177 -50 -363 -217 -466
-146 -89 -352 -83 -505 16 -77 50 -119 99 -163 191 -35 73 -36 80 -36 187 0
110 0 111 42 196 62 125 160 209 283 242 74 20 73 20 56 -12z m157 -158 c62
-97 63 -102 48 -123 -16 -21 -17 -21 -71 54 -30 41 -55 75 -56 75 0 0 -23 -31
-50 -70 -27 -38 -51 -70 -54 -70 -3 0 -11 9 -18 20 -15 24 -14 26 65 147 30
47 59 81 64 76 4 -4 37 -54 72 -109z m-236 -132 c28 -48 50 -88 49 -89 -1 -1
-18 0 -38 3 -25 4 -39 14 -47 30 -18 40 -16 42 -123 -124 -42 -67 -47 -72 -57
-53 -19 34 -13 53 44 141 30 47 66 106 81 133 15 26 30 47 33 47 3 0 29 -40
58 -88z m484 -78 c55 -84 65 -106 61 -133 -2 -17 -8 -33 -12 -36 -4 -3 -42 47
-83 111 -72 108 -77 114 -89 94 -12 -20 -76 -60 -96 -60 -6 0 18 42 52 94 l61
94 20 -31 c10 -18 49 -77 86 -133z m-263 71 c-2 -1 -34 -5 -73 -8 l-70 -5 39
33 40 33 33 -25 c19 -14 32 -27 31 -28z m-41 -182 c-2 -21 -4 -6 -4 32 0 39 2
55 4 38 2 -18 2 -50 0 -70z m-130 20 c-3 -10 -5 -2 -5 17 0 19 2 27 5 18 2
-10 2 -26 0 -35z m-127 -45 c0 -7 -13 -22 -28 -33 l-27 -20 25 32 c29 36 30
38 30 21z m510 -31 l22 -32 -25 29 c-22 26 -25 27 -30 10 -3 -13 -5 -10 -6 9
-1 33 10 29 39 -16z m-12 -151 l-33 -31 28 31 c17 19 28 43 29 65 l1 34 4 -34
c4 -28 -1 -39 -29 -65z m-518 -1 c13 -14 21 -25 18 -25 -2 0 -15 11 -28 25
-13 14 -21 25 -18 25 2 0 15 -11 28 -25z m-525 -366 c40 -95 74 -162 90 -176
14 -12 25 -25 25 -28 0 -3 -27 -5 -60 -5 -58 0 -60 1 -55 23 4 12 1 35 -4 50
-10 25 -15 27 -70 27 -57 0 -59 -1 -70 -32 -9 -26 -8 -35 5 -50 16 -17 15 -18
-46 -18 l-62 0 29 28 c21 19 41 63 73 152 53 152 70 194 76 187 2 -2 34 -74
69 -158z m912 103 c-14 -15 -17 -41 -17 -137 0 -96 3 -122 17 -137 15 -17 14
-18 -37 -18 -42 0 -51 3 -42 12 8 8 12 54 12 141 0 112 -2 132 -17 143 -16 12
-10 13 41 14 57 0 58 -1 43 -18z m-667 -100 c0 30 -5 59 -12 66 -9 9 8 12 78
12 146 0 191 -22 201 -98 11 -79 -47 -132 -144 -132 l-48 0 0 107 c0 101 -1
108 -20 108 -19 0 -20 -6 -18 -102 1 -57 -3 -103 -8 -103 -5 0 -40 30 -79 66
l-70 66 0 -59 c0 -33 5 -64 12 -71 9 -9 5 -12 -18 -12 l-29 0 3 116 3 115 75
-66 74 -67 0 54z m412 54 c5 -22 3 -23 -34 -18 -39 5 -40 4 -36 -24 3 -26 7
-29 36 -28 28 2 32 -1 32 -22 0 -21 -2 -23 -19 -13 -28 18 -51 4 -51 -31 0
-27 3 -30 33 -30 18 0 39 6 46 13 11 10 13 9 7 -6 -3 -10 -6 -25 -6 -33 0 -11
-17 -14 -72 -14 -56 0 -69 3 -60 12 16 16 16 190 0 206 -9 9 3 12 54 12 61 0
66 -2 70 -24z m146 -3 c3 -23 -12 -31 -23 -13 -3 6 -15 10 -26 10 -32 0 -22
-32 26 -76 49 -44 51 -58 12 -101 -22 -25 -80 -32 -93 -11 -10 16 -14 58 -6
58 4 0 13 -9 20 -21 17 -27 56 -22 60 7 2 15 -7 29 -30 44 -63 44 -73 75 -37
111 29 29 93 24 97 -8z m292 -49 c0 42 -4 57 -17 65 -14 8 1 10 55 11 43 0 71
-4 67 -9 -8 -13 46 -144 55 -134 4 4 17 33 28 64 15 42 18 59 9 68 -8 8 15 11
91 11 l102 0 0 -27 c0 -21 -3 -24 -12 -15 -7 7 -22 12 -35 12 -20 0 -23 -5
-23 -35 0 -30 3 -35 24 -35 13 0 27 6 29 13 3 6 6 -4 6 -23 1 -26 -2 -31 -11
-22 -7 7 -20 12 -30 12 -14 0 -18 -8 -18 -40 0 -35 3 -40 24 -40 13 0 29 7 36
15 20 25 30 17 19 -15 -11 -29 -13 -30 -76 -30 -58 0 -64 2 -58 18 8 21 8 12
6 110 -1 103 -18 109 -54 19 -43 -106 -61 -147 -68 -147 -3 0 -26 46 -51 102
-25 56 -50 104 -56 106 -9 3 -12 -26 -12 -99 l0 -103 -75 74 -75 74 0 -65 c0
-37 5 -70 12 -77 9 -9 5 -12 -17 -12 l-30 0 3 116 3 115 75 -66 74 -67 0 56z
m533 70 c9 -3 13 -13 10 -25 -4 -15 -9 -17 -19 -8 -7 6 -23 9 -36 7 -27 -4
-29 -37 -2 -53 42 -25 74 -58 74 -78 0 -33 -39 -67 -76 -67 -51 0 -64 9 -64
43 l0 30 23 -21 c28 -26 65 -29 74 -5 4 11 -3 24 -23 39 -81 64 -91 87 -54
124 19 19 63 26 93 14z m199 -24 c3 -21 1 -27 -6 -20 -5 5 -20 10 -33 10 -22
0 -23 -3 -23 -77 0 -57 4 -81 17 -95 15 -17 14 -18 -32 -18 -38 0 -46 3 -37
12 17 17 17 192 0 185 -58 -21 -66 -19 -52 17 5 13 22 16 84 16 l78 0 4 -30z
m-1222 -315 c7 -8 10 -21 7 -29 -3 -7 0 -19 6 -25 20 -20 -25 -54 -59 -47 -28
6 -29 8 -26 61 4 53 5 55 32 55 15 0 33 -7 40 -15z m134 -37 c25 -58 24 -78
-3 -54 -23 21 -48 20 -59 0 -5 -9 -14 -14 -20 -10 -8 5 -8 13 -2 24 5 9 16 34
24 55 8 20 20 37 26 37 6 0 21 -24 34 -52z m136 20 c0 18 5 32 10 32 6 0 10
-27 10 -62 l-1 -63 -34 37 -35 38 0 -36 c0 -52 -24 -38 -28 15 -5 71 3 79 43
41 l35 -34 0 32z m100 12 c0 -11 3 -20 8 -20 4 0 13 9 20 20 7 11 20 20 29 20
14 0 13 -4 -6 -24 l-23 -25 22 -31 c28 -40 16 -54 -15 -17 -30 34 -35 34 -35
1 0 -16 -5 -24 -12 -22 -13 5 -23 80 -14 104 8 21 26 17 26 -6z m-540 -15 c0
-13 -20 -15 -122 -15 -68 0 -141 3 -163 7 l-40 7 35 7 c19 3 92 7 163 8 107 1
127 -1 127 -14z m1058 6 c23 -14 -42 -21 -209 -21 -145 0 -172 4 -152 23 9 10
346 8 361 -2z"/>
<path d="M1245 1720 c-3 -5 1 -10 10 -10 9 0 13 5 10 10 -3 6 -8 10 -10 10 -2
0 -7 -4 -10 -10z"/>
<path d="M377 928 c-9 -30 -17 -58 -17 -61 0 -4 18 -7 41 -7 45 0 45 0 10 84
l-17 38 -17 -54z"/>
<path d="M850 895 l0 -87 28 7 c89 21 89 139 0 160 l-28 7 0 -87z"/>
<path d="M1035 640 c3 -5 10 -10 16 -10 5 0 9 5 9 10 0 6 -7 10 -16 10 -8 0
-12 -4 -9 -10z"/>
<path d="M1030 600 c0 -5 9 -10 20 -10 11 0 20 5 20 10 0 6 -9 10 -20 10 -11
0 -20 -4 -20 -10z"/>
<path d="M1176 631 c-4 -7 -5 -15 -2 -18 9 -9 19 4 14 18 -4 11 -6 11 -12 0z"/>
</g>
</svg>
