<?xml version="1.0" encoding="UTF-8"?><svg version="1.1" width="24px" height="24px" viewBox="0 0 24.0 24.0" xmlns="http://www.w3.org/2000/svg" xmlns:xlink="http://www.w3.org/1999/xlink"><defs><clipPath id="i0"><path d="M20,3.33333333 L20,13.8888889 C20,14.8090278 19.2534722,15.5555556 18.3333333,15.5555556 L1.66666667,15.5555556 C0.746527778,15.5555556 0,14.8090278 0,13.8888889 L0,3.33333333 L20,3.33333333 Z M4.72916667,11.1111111 L4.44444444,11.1111111 C3.45833333,11.1111111 2.62152778,11.7534722 2.32986111,12.6458333 C2.21875,12.9861111 2.51041667,13.3333333 2.87152778,13.3333333 L9.35069444,13.3333333 C9.71180556,13.3333333 10.0034722,12.9895833 9.89236111,12.6458333 C9.60069444,11.7534722 8.76388889,11.1111111 7.77777778,11.1111111 L7.49305556,11.1111111 C7.06944444,11.2881944 6.60069444,11.3888889 6.11111111,11.3888889 C5.62152778,11.3888889 5.15625,11.2881944 4.72916667,11.1111111 Z M17.5,10 L12.5,10 C12.3472222,10 12.2222222,10.125 12.2222222,10.2777778 L12.2222222,10.8333333 C12.2222222,10.9861111 12.3472222,11.1111111 12.5,11.1111111 L17.5,11.1111111 C17.6527778,11.1111111 17.7777778,10.9861111 17.7777778,10.8333333 L17.7777778,10.2777778 C17.7777778,10.125 17.6527778,10 17.5,10 Z M6.11111111,5.55555556 C4.88541667,5.55555556 3.88888889,6.55208333 3.88888889,7.77777778 C3.88888889,9.00347222 4.88541667,10 6.11111111,10 C7.33680556,10 8.33333333,9.00347222 8.33333333,7.77777778 C8.33333333,6.55208333 7.33680556,5.55555556 6.11111111,5.55555556 Z M17.5,7.77777778 L12.5,7.77777778 C12.3472222,7.77777778 12.2222222,7.90277778 12.2222222,8.05555556 L12.2222222,8.61111111 C12.2222222,8.76388889 12.3472222,8.88888889 12.5,8.88888889 L17.5,8.88888889 C17.6527778,8.88888889 17.7777778,8.76388889 17.7777778,8.61111111 L17.7777778,8.05555556 C17.7777778,7.90277778 17.6527778,7.77777778 17.5,7.77777778 Z M17.5,5.55555556 L12.5,5.55555556 C12.3472222,5.55555556 12.2222222,5.68055556 12.2222222,5.83333333 L12.2222222,6.38888889 C12.2222222,6.54166667 12.3472222,6.66666667 12.5,6.66666667 L17.5,6.66666667 C17.6527778,6.66666667 17.7777778,6.54166667 17.7777778,6.38888889 L17.7777778,5.83333333 C17.7777778,5.68055556 17.6527778,5.55555556 17.5,5.55555556 Z M18.3333333,0 C19.2534722,0 20,0.746527778 20,1.66666667 L20,2.22222222 L0,2.22222222 L0,1.66666667 C0,0.746527778 0.746527778,0 1.66666667,0 Z"></path></clipPath></defs><g transform="translate(2.0 4.0)"><g clip-path="url(#i0)"><polygon points="0,0 20,0 20,15.5555556 0,15.5555556 0,0" stroke="none" fill="#005EB8"></polygon></g></g></svg>